<svg xmlns="http://www.w3.org/2000/svg" viewBox="0 0 512 512">
  <rect width="512" height="512" rx="96" fill="#2563EB"/>
  <path d="M160 112h192c35.3 0 64 28.7 64 64v184c0 35.3-28.7 64-64 64H160c-35.3 0-64-28.7-64-64V176c0-35.3 28.7-64 64-64Z" fill="#E2E8F0"/>
  <path d="M160 112h192c35.3 0 64 28.7 64 64v32H96v-32c0-35.3 28.7-64 64-64Z" fill="#BFDBFE"/>
  <rect x="136" y="184" width="240" height="176" rx="24" fill="#F8FAFC"/>
  <line x1="256" y1="184" x2="256" y2="360" stroke="#CBD5E1" stroke-width="18"/>
  <line x1="160" y1="224" x2="352" y2="224" stroke="#CBD5E1" stroke-width="14"/>
  <circle cx="222" cy="272" r="10" fill="#60A5FA"/>
  <circle cx="290" cy="272" r="10" fill="#60A5FA"/>
</svg>
